# xmcd CD database file
#
# Track frame offsets:
#	150
#	30335
#	58005
#	82552
#	127935
#	155932
#	177045
#	211935
#	244495
#
# Disc length: 3588 seconds
#
# Revision: 2
# Processed by: cddbd v1.5.2PL0 Copyright (c) Steve Scherf et al.
# Submitted via: CDex 1.70beta2
#
DISCID=6b0e0209
DTITLE=Various Artist - Jazz In The Cafes ～Weekend Drive～
DYEAR=2002
DGENRE=Jazz
TTITLE0=Because Of You/増尾好秋
TTITLE1=Father's Finger/New York Liner
TTITLE2=Delta Lady/David Matthews Orchestra
TTITLE3=Shadow Boxing/小宅珠実
TTITLE4=Night Bird/森園勝敏
TTITLE5=What Can I Say/Richard Tee
TTITLE6=Dear Harvey/森園勝敏
TTITLE7=Dealing With Life/増尾好秋
TTITLE8=Mattie's Song/New York Liner
EXTD=YEAR: 2002
EXTT0=
EXTT1=
EXTT2=
EXTT3=
EXTT4=
EXTT5=
EXTT6=
EXTT7=
EXTT8=
PLAYORDER=
